<mxfile host="app.diagrams.net" modified="2024-03-12T20:06:16.244Z" agent="Mozilla/5.0 (Windows NT 10.0; Win64; x64) AppleWebKit/537.36 (KHTML, like Gecko) Chrome/122.0.0.0 Safari/537.36" etag="h46ypUdkkzRtpEzO9lBX" version="24.0.5" type="github">
  <diagram id="C5RBs43oDa-KdzZeNtuy" name="Page-1">
    <mxGraphModel dx="2261" dy="738" grid="1" gridSize="10" guides="1" tooltips="1" connect="1" arrows="1" fold="1" page="1" pageScale="1" pageWidth="827" pageHeight="1169" math="0" shadow="0">
      <root>
        <mxCell id="WIyWlLk6GJQsqaUBKTNV-0" />
        <mxCell id="WIyWlLk6GJQsqaUBKTNV-1" parent="WIyWlLk6GJQsqaUBKTNV-0" />
        <mxCell id="EKvcMYnbPTuFiUc2t8E_-36" style="edgeStyle=orthogonalEdgeStyle;rounded=0;orthogonalLoop=1;jettySize=auto;html=1;" edge="1" parent="WIyWlLk6GJQsqaUBKTNV-1" source="EKvcMYnbPTuFiUc2t8E_-3" target="EKvcMYnbPTuFiUc2t8E_-20">
          <mxGeometry relative="1" as="geometry" />
        </mxCell>
        <mxCell id="EKvcMYnbPTuFiUc2t8E_-37" style="edgeStyle=orthogonalEdgeStyle;rounded=0;orthogonalLoop=1;jettySize=auto;html=1;entryX=0;entryY=0.5;entryDx=0;entryDy=0;" edge="1" parent="WIyWlLk6GJQsqaUBKTNV-1" source="EKvcMYnbPTuFiUc2t8E_-3" target="EKvcMYnbPTuFiUc2t8E_-15">
          <mxGeometry relative="1" as="geometry" />
        </mxCell>
        <mxCell id="EKvcMYnbPTuFiUc2t8E_-3" value="Actor" style="shape=umlActor;verticalLabelPosition=bottom;verticalAlign=top;html=1;outlineConnect=0;fontStyle=1;fontSize=14;" vertex="1" parent="WIyWlLk6GJQsqaUBKTNV-1">
          <mxGeometry x="-540" y="260" width="30" height="60" as="geometry" />
        </mxCell>
        <mxCell id="EKvcMYnbPTuFiUc2t8E_-31" style="edgeStyle=orthogonalEdgeStyle;rounded=0;orthogonalLoop=1;jettySize=auto;html=1;startArrow=classic;startFill=1;" edge="1" parent="WIyWlLk6GJQsqaUBKTNV-1" source="EKvcMYnbPTuFiUc2t8E_-4" target="EKvcMYnbPTuFiUc2t8E_-8">
          <mxGeometry relative="1" as="geometry" />
        </mxCell>
        <mxCell id="EKvcMYnbPTuFiUc2t8E_-4" value="Drone" style="shape=switch;whiteSpace=wrap;html=1;fontStyle=1;fontSize=14;" vertex="1" parent="WIyWlLk6GJQsqaUBKTNV-1">
          <mxGeometry x="-15" y="90" width="90" height="80" as="geometry" />
        </mxCell>
        <mxCell id="EKvcMYnbPTuFiUc2t8E_-24" value="Mavlink" style="edgeStyle=orthogonalEdgeStyle;rounded=0;orthogonalLoop=1;jettySize=auto;html=1;entryX=0.5;entryY=0;entryDx=0;entryDy=0;startArrow=classic;startFill=1;" edge="1" parent="WIyWlLk6GJQsqaUBKTNV-1" source="EKvcMYnbPTuFiUc2t8E_-8" target="EKvcMYnbPTuFiUc2t8E_-22">
          <mxGeometry relative="1" as="geometry" />
        </mxCell>
        <mxCell id="EKvcMYnbPTuFiUc2t8E_-8" value="&lt;div style=&quot;font-size: 14px;&quot;&gt;PX4&lt;/div&gt;" style="rounded=1;whiteSpace=wrap;html=1;fontStyle=1;fontSize=14;" vertex="1" parent="WIyWlLk6GJQsqaUBKTNV-1">
          <mxGeometry x="-230" y="100" width="120" height="60" as="geometry" />
        </mxCell>
        <mxCell id="EKvcMYnbPTuFiUc2t8E_-35" value="Socket" style="edgeStyle=orthogonalEdgeStyle;rounded=0;orthogonalLoop=1;jettySize=auto;html=1;startArrow=classic;startFill=1;" edge="1" parent="WIyWlLk6GJQsqaUBKTNV-1" source="EKvcMYnbPTuFiUc2t8E_-10" target="EKvcMYnbPTuFiUc2t8E_-19">
          <mxGeometry relative="1" as="geometry" />
        </mxCell>
        <mxCell id="EKvcMYnbPTuFiUc2t8E_-10" value="Kotlin Companion Computer" style="rounded=1;whiteSpace=wrap;html=1;fontStyle=1;fontSize=14;" vertex="1" parent="WIyWlLk6GJQsqaUBKTNV-1">
          <mxGeometry x="-30" y="330" width="120" height="60" as="geometry" />
        </mxCell>
        <mxCell id="EKvcMYnbPTuFiUc2t8E_-29" value="LTE" style="edgeStyle=orthogonalEdgeStyle;rounded=0;orthogonalLoop=1;jettySize=auto;html=1;entryX=0;entryY=0.5;entryDx=0;entryDy=0;startArrow=classic;startFill=1;" edge="1" parent="WIyWlLk6GJQsqaUBKTNV-1" source="EKvcMYnbPTuFiUc2t8E_-12" target="EKvcMYnbPTuFiUc2t8E_-10">
          <mxGeometry relative="1" as="geometry" />
        </mxCell>
        <mxCell id="EKvcMYnbPTuFiUc2t8E_-12" value="Supabase Backend" style="rounded=1;whiteSpace=wrap;html=1;fontStyle=1;fontSize=14;" vertex="1" parent="WIyWlLk6GJQsqaUBKTNV-1">
          <mxGeometry x="-230" y="330" width="120" height="60" as="geometry" />
        </mxCell>
        <mxCell id="EKvcMYnbPTuFiUc2t8E_-23" value="LTE" style="edgeStyle=orthogonalEdgeStyle;rounded=0;orthogonalLoop=1;jettySize=auto;html=1;startArrow=classic;startFill=1;" edge="1" parent="WIyWlLk6GJQsqaUBKTNV-1" source="EKvcMYnbPTuFiUc2t8E_-15" target="EKvcMYnbPTuFiUc2t8E_-12">
          <mxGeometry relative="1" as="geometry" />
        </mxCell>
        <mxCell id="EKvcMYnbPTuFiUc2t8E_-15" value="FawnRescue App" style="rounded=1;whiteSpace=wrap;html=1;fontStyle=1;fontSize=14;" vertex="1" parent="WIyWlLk6GJQsqaUBKTNV-1">
          <mxGeometry x="-430" y="330" width="120" height="60" as="geometry" />
        </mxCell>
        <mxCell id="EKvcMYnbPTuFiUc2t8E_-28" value="gRPC" style="edgeStyle=orthogonalEdgeStyle;rounded=0;orthogonalLoop=1;jettySize=auto;html=1;entryX=0.5;entryY=0;entryDx=0;entryDy=0;startArrow=classic;startFill=1;" edge="1" parent="WIyWlLk6GJQsqaUBKTNV-1" source="EKvcMYnbPTuFiUc2t8E_-17" target="EKvcMYnbPTuFiUc2t8E_-10">
          <mxGeometry relative="1" as="geometry" />
        </mxCell>
        <mxCell id="EKvcMYnbPTuFiUc2t8E_-17" value="Mavlink Server" style="rounded=1;whiteSpace=wrap;html=1;fontStyle=1;fontSize=14;" vertex="1" parent="WIyWlLk6GJQsqaUBKTNV-1">
          <mxGeometry x="-30" y="200" width="120" height="60" as="geometry" />
        </mxCell>
        <mxCell id="EKvcMYnbPTuFiUc2t8E_-19" value="Camera Service" style="rounded=1;whiteSpace=wrap;html=1;fontStyle=1;fontSize=14;" vertex="1" parent="WIyWlLk6GJQsqaUBKTNV-1">
          <mxGeometry x="170" y="330" width="120" height="60" as="geometry" />
        </mxCell>
        <mxCell id="EKvcMYnbPTuFiUc2t8E_-20" value="QGroundControl" style="rounded=1;whiteSpace=wrap;html=1;fontStyle=1;fontSize=14;" vertex="1" parent="WIyWlLk6GJQsqaUBKTNV-1">
          <mxGeometry x="-430" y="200" width="120" height="60" as="geometry" />
        </mxCell>
        <mxCell id="EKvcMYnbPTuFiUc2t8E_-26" value="LTE" style="edgeStyle=orthogonalEdgeStyle;rounded=0;orthogonalLoop=1;jettySize=auto;html=1;entryX=1;entryY=0.5;entryDx=0;entryDy=0;startArrow=classic;startFill=1;" edge="1" parent="WIyWlLk6GJQsqaUBKTNV-1" source="EKvcMYnbPTuFiUc2t8E_-22" target="EKvcMYnbPTuFiUc2t8E_-20">
          <mxGeometry relative="1" as="geometry" />
        </mxCell>
        <mxCell id="EKvcMYnbPTuFiUc2t8E_-27" value="Mavlink" style="edgeStyle=orthogonalEdgeStyle;rounded=0;orthogonalLoop=1;jettySize=auto;html=1;startArrow=classic;startFill=1;" edge="1" parent="WIyWlLk6GJQsqaUBKTNV-1" source="EKvcMYnbPTuFiUc2t8E_-22" target="EKvcMYnbPTuFiUc2t8E_-17">
          <mxGeometry relative="1" as="geometry" />
        </mxCell>
        <mxCell id="EKvcMYnbPTuFiUc2t8E_-22" value="Mavlink Router" style="rounded=1;whiteSpace=wrap;html=1;fontStyle=1;fontSize=14;" vertex="1" parent="WIyWlLk6GJQsqaUBKTNV-1">
          <mxGeometry x="-230" y="200" width="120" height="60" as="geometry" />
        </mxCell>
      </root>
    </mxGraphModel>
  </diagram>
</mxfile>
